<svg width="52" height="52" viewBox="0 0 52 52" fill="none" xmlns="http://www.w3.org/2000/svg">
<path d="M33.6609 20.0106C32.2265 18.5763 31.5414 16.5212 31.8283 14.5131C32.0842 12.7222 31.8777 10.8824 31.2315 9.19263L30.0118 6.00377C30.3647 5.84462 30.6109 5.49047 30.6109 5.07812V2.64062C30.6109 1.18462 29.4264 0 27.9703 0H24.0314C22.5753 0 21.3908 1.18462 21.3908 2.64062V5.07812C21.3908 5.48986 21.6363 5.8436 21.9884 6.00305L20.7685 9.19263C20.1223 10.8824 19.9158 12.7222 20.1717 14.5131C20.4585 16.5212 19.7735 18.5763 18.3391 20.0106C16.7318 21.618 15.8466 23.7551 15.8466 26.0281V46.9219C15.8466 49.722 18.1246 52 20.9247 52H31.0752C33.8753 52 36.1533 49.722 36.1533 46.9219V26.0281C36.1534 23.7551 35.2682 21.618 33.6609 20.0106ZM22.1039 13.3552C22.0569 12.1868 22.2469 11.0136 22.6657 9.91829L24.1284 6.09375H27.8715L29.3342 9.91829C29.7532 11.0142 29.9432 12.188 29.8959 13.357L26.0007 17.2522L22.1039 13.3552ZM23.422 2.64062C23.422 2.30455 23.6953 2.03125 24.0314 2.03125H27.9703C28.3064 2.03125 28.5797 2.30455 28.5797 2.64062V4.0625H28.5704H23.4294H23.422V2.64062ZM30.5703 34.2407H34.0679C34.1026 34.5446 34.1222 34.8529 34.1222 35.1659V37.7842C34.1222 38.0972 34.1026 38.4056 34.0679 38.7094H17.9322C17.8975 38.4056 17.8779 38.0972 17.8779 37.7842V35.1659C17.8779 34.8529 17.8975 34.5446 17.9322 34.2407H30.4297C30.9905 34.2407 31.4453 33.786 31.4453 33.2251C31.4453 32.6641 30.9905 32.2094 30.4297 32.2094H18.4373C19.6223 29.1891 22.5643 27.0439 26 27.0439C29.4357 27.0439 32.3776 29.1891 33.5626 32.2094H30.5703C30.0095 32.2094 29.5547 32.6641 29.5547 33.2251C29.5547 33.786 30.0095 34.2407 30.5703 34.2407ZM33.5626 40.7407C32.3776 43.761 29.4356 45.9062 26 45.9062C22.5644 45.9062 19.6224 43.761 18.4373 40.7407H33.5626ZM34.1222 46.9219C34.1222 48.6019 32.7553 49.9688 31.0753 49.9688H20.9248C19.2448 49.9688 17.8779 48.6019 17.8779 46.9219V43.8702C19.7319 46.3382 22.6826 47.9375 26 47.9375C29.3174 47.9375 32.2681 46.3382 34.1222 43.8702V46.9219ZM26 25.0125C22.6826 25.0125 19.7319 26.6118 17.8778 29.0798V26.0281C17.8778 24.2975 18.5518 22.6706 19.7755 21.4469C21.1554 20.067 22.0065 18.2496 22.2156 16.3395L25.2828 19.4067C25.4811 19.605 25.741 19.7041 26.0009 19.7041C26.2608 19.7041 26.5207 19.605 26.7191 19.4067L29.7846 16.3411C29.994 18.2506 30.845 20.0673 32.2245 21.4469C33.4482 22.6706 34.1222 24.2975 34.1222 26.0281V29.0798C32.2681 26.6119 29.3174 25.0125 26 25.0125Z" fill="#4C5D73"/>
</svg>
