<svg width="18" height="18" viewBox="0 0 18 18" fill="none" xmlns="http://www.w3.org/2000/svg">
<path d="M11.124 11.007C10.5224 11.4921 9.77283 11.7566 9 11.7566C8.22718 11.7566 7.47764 11.4921 6.876 11.007C6.69221 10.8542 6.45526 10.7807 6.21727 10.8027C5.97929 10.8246 5.75977 10.9402 5.607 11.124C5.45424 11.3078 5.38074 11.5447 5.40268 11.7827C5.42463 12.0207 5.54021 12.2402 5.724 12.393C6.64321 13.1603 7.80261 13.5807 9 13.5807C10.1974 13.5807 11.3568 13.1603 12.276 12.393C12.4598 12.2402 12.5754 12.0207 12.5973 11.7827C12.6193 11.5447 12.5458 11.3078 12.393 11.124C12.3174 11.033 12.2245 10.9578 12.1198 10.9026C12.0151 10.8475 11.9006 10.8135 11.7827 10.8027C11.5448 10.7807 11.3078 10.8542 11.124 11.007ZM6.489 7.686C6.65763 7.85362 6.88574 7.94771 7.1235 7.94771C7.36127 7.94771 7.58938 7.85362 7.758 7.686C7.92563 7.51737 8.01972 7.28927 8.01972 7.0515C8.01972 6.81373 7.92563 6.58562 7.758 6.417C7.24295 5.92829 6.56001 5.65585 5.85 5.65585C5.13999 5.65585 4.45705 5.92829 3.942 6.417C3.84779 6.49768 3.77127 6.59697 3.71725 6.70863C3.66323 6.82028 3.63287 6.9419 3.62808 7.06585C3.6233 7.1898 3.64418 7.3134 3.68943 7.42889C3.73468 7.54438 3.80331 7.64927 3.89102 7.73698C3.97873 7.82469 4.08362 7.89332 4.19911 7.93857C4.31461 7.98382 4.4382 8.0047 4.56215 7.99992C4.6861 7.99513 4.80772 7.96477 4.91938 7.91075C5.03103 7.85673 5.13032 7.78021 5.211 7.686C5.29467 7.60164 5.39421 7.53469 5.50388 7.489C5.61356 7.4433 5.73119 7.41978 5.85 7.41978C5.96881 7.41978 6.08645 7.4433 6.19612 7.489C6.3058 7.53469 6.40534 7.60164 6.489 7.686ZM14.058 6.417C13.543 5.92829 12.86 5.65585 12.15 5.65585C11.44 5.65585 10.7571 5.92829 10.242 6.417C10.0946 6.58917 10.0175 6.81064 10.0263 7.03715C10.035 7.26365 10.1289 7.47852 10.2892 7.6388C10.4495 7.79909 10.6643 7.89299 10.8909 7.90174C11.1174 7.91049 11.3388 7.83344 11.511 7.686C11.5947 7.60164 11.6942 7.53469 11.8039 7.489C11.9136 7.4433 12.0312 7.41978 12.15 7.41978C12.2688 7.41978 12.3864 7.4433 12.4961 7.489C12.6058 7.53469 12.7053 7.60164 12.789 7.686C12.9576 7.85362 13.1857 7.94771 13.4235 7.94771C13.6613 7.94771 13.8894 7.85362 14.058 7.686C14.2256 7.51737 14.3197 7.28927 14.3197 7.0515C14.3197 6.81373 14.2256 6.58562 14.058 6.417ZM9 0C7.21997 0 5.47991 0.527841 3.99987 1.51677C2.51983 2.50571 1.36628 3.91131 0.685088 5.55585C0.00389956 7.20038 -0.17433 9.00998 0.172937 10.7558C0.520203 12.5016 1.37737 14.1053 2.63604 15.364C3.89472 16.6226 5.49836 17.4798 7.24419 17.8271C8.99002 18.1743 10.7996 17.9961 12.4442 17.3149C14.0887 16.6337 15.4943 15.4802 16.4832 14.0001C17.4722 12.5201 18 10.78 18 9C18 7.8181 17.7672 6.64778 17.3149 5.55585C16.8626 4.46392 16.1997 3.47177 15.364 2.63604C14.5282 1.80031 13.5361 1.13738 12.4442 0.685084C11.3522 0.232792 10.1819 0 9 0ZM9 16.2C7.57598 16.2 6.18393 15.7777 4.9999 14.9866C3.81586 14.1954 2.89302 13.0709 2.34807 11.7553C1.80312 10.4397 1.66054 8.99201 1.93835 7.59535C2.21616 6.19868 2.9019 4.91577 3.90883 3.90883C4.91577 2.90189 6.19869 2.21616 7.59535 1.93835C8.99202 1.66053 10.4397 1.80312 11.7553 2.34807C13.071 2.89302 14.1954 3.81586 14.9866 4.99989C15.7777 6.18393 16.2 7.57597 16.2 9C16.2 10.9096 15.4414 12.7409 14.0912 14.0912C12.7409 15.4414 10.9096 16.2 9 16.2Z" fill="#4C5D73"/>
</svg>
