<svg width="30" height="42" viewBox="0 0 30 42" fill="none" xmlns="http://www.w3.org/2000/svg">
<path d="M15.0001 32.0744C14.5955 32.0744 14.2168 31.8755 13.9872 31.5425L0.862229 12.5113C0.602601 12.1349 0.573152 11.6456 0.785776 11.2407C0.998318 10.8359 1.4179 10.5823 1.87514 10.5823H28.125C28.5822 10.5823 29.0017 10.8359 29.2144 11.2407C29.427 11.6456 29.3974 12.1349 29.1379 12.5113L16.013 31.5425C15.7832 31.8755 15.4046 32.0744 15.0001 32.0744ZM4.21835 13.0432L15 28.6766L25.7816 13.0432H4.21835Z" fill="#4C5D73"/>
<path d="M15 42.0001C14.3205 42.0001 13.7696 41.4491 13.7696 40.7696V30.8438C13.7696 30.1643 14.3205 29.6133 15 29.6133C15.6796 29.6133 16.2305 30.1643 16.2305 30.8438V40.7696C16.2305 41.4491 15.6796 42.0001 15 42.0001Z" fill="#4C5D73"/>
<path d="M24.1875 42H5.81258C5.13304 42 4.58212 41.4491 4.58212 40.7695C4.58212 40.09 5.13304 39.5391 5.81258 39.5391H24.1875C24.867 39.5391 25.4179 40.09 25.4179 40.7695C25.4179 41.4491 24.867 42 24.1875 42Z" fill="#4C5D73"/>
<path d="M14.999 23.5433C14.8147 23.5433 14.6277 23.5018 14.4514 23.414C13.8432 23.1111 13.5956 22.3724 13.8986 21.7641L24.3985 0.682152C24.7014 0.0738938 25.4401 -0.173675 26.0485 0.129347C26.6568 0.432286 26.9043 1.17106 26.6013 1.77931L16.1014 22.8612C15.8862 23.2933 15.4511 23.5433 14.999 23.5433Z" fill="#4C5D73"/>
<path d="M22.7499 20.8354C22.5154 20.8354 22.2784 20.7685 22.0686 20.6287L20.2237 19.399C19.4422 18.8778 18.4326 18.8778 17.6514 19.3989C16.0406 20.4727 13.9593 20.4727 12.3487 19.3989C11.5674 18.8781 10.5576 18.8781 9.77637 19.3989L7.93133 20.6287C7.36581 21.0056 6.60194 20.8527 6.22501 20.2873C5.84808 19.7218 6.00099 18.9578 6.56642 18.5809L8.4113 17.3513C10.0217 16.2776 12.1032 16.2776 13.7138 17.3514C14.4951 17.8723 15.5047 17.8723 16.2862 17.3514C17.8968 16.2773 19.9783 16.2774 21.5889 17.3515L23.4335 18.5809C23.999 18.9578 24.1518 19.7217 23.7749 20.2873C23.5379 20.6429 23.1476 20.8354 22.7499 20.8354Z" fill="#4C5D73"/>
</svg>
